<?xml version="1.0" encoding="UTF-8" standalone="no"?>

<svg
   version="1.1"
   id="svg2"
   xml:space="preserve"
   width="481.08932"
   height="165.96133"
   viewBox="0 0 481.08932 165.96133"
   sodipodi:docname="Worldpay_logo_c_rgb.ai"
   xmlns:inkscape="http://www.inkscape.org/namespaces/inkscape"
   xmlns:sodipodi="http://sodipodi.sourceforge.net/DTD/sodipodi-0.dtd"
   xmlns="http://www.w3.org/2000/svg"
   xmlns:svg="http://www.w3.org/2000/svg"><defs
     id="defs6"><clipPath
       clipPathUnits="userSpaceOnUse"
       id="clipPath16"><path
         d="M 0,124.471 H 360.817 V 0 H 0 Z"
         id="path14" /></clipPath></defs><sodipodi:namedview
     id="namedview4"
     pagecolor="#ffffff"
     bordercolor="#666666"
     borderopacity="1.0"
     inkscape:pageshadow="2"
     inkscape:pageopacity="0.0"
     inkscape:pagecheckerboard="0" /><g
     id="g8"
     inkscape:groupmode="layer"
     inkscape:label="Worldpay_logo_c_rgb"
     transform="matrix(1.3333333,0,0,-1.3333333,0,165.96133)"><g
       id="g10"><g
         id="g12"
         clip-path="url(#clipPath16)"><g
           id="g18"
           transform="translate(242.279,63.3068)"><path
             d="m 0,0 c -3.35,0 -6.832,0.921 -6.832,0.921 v 23.478 c 0,0 3.032,0.895 6.451,0.895 8.026,0 9.958,-5.68 9.958,-12.419 C 9.577,10.472 9.829,0 0,0 m 0.74,33.948 c -7.955,0 -13.37,-1.896 -15.968,-3.039 -1.569,-0.677 -1.569,-1.587 -1.569,-2.395 v -53.238 c 0,-0.632 0.515,-1.146 1.147,-1.146 h 7.671 c 0.633,0 1.147,0.514 1.147,1.146 v 16.882 c 1.489,-0.317 4.125,-0.906 8.42,-0.906 15.265,0 18.456,13.737 18.456,21.242 0,16.594 -9.976,21.454 -19.304,21.454 M 50.679,0.206 c 0,0 -3.066,-1.022 -7.239,-1.022 -5.747,0 -7.391,2.88 -7.391,5.864 0,3.807 2.505,6.258 7.997,6.258 h 6.633 z m -5.632,33.742 c -6.803,0 -10.629,-0.891 -14.339,-1.936 -0.992,-0.279 -1.406,-0.965 -1.126,-2.081 l 1.147,-4.652 c 0.149,-0.672 0.765,-1.583 1.868,-1.302 2.386,0.587 6.044,1.753 11.404,1.753 5.36,0 6.754,-1.996 6.754,-6.782 h -6.628 c -14.097,0 -18.018,-7.44 -18.018,-13.532 0,-7.68 3.74,-14.164 17.002,-14.164 9.991,0 14.967,2.523 16.086,3.106 0.904,0.472 1.449,0.834 1.449,2.408 v 23.208 c 0,10.494 -6.207,13.974 -15.599,13.974 M -36.075,0.801 c 0,0 -3.032,-0.895 -6.451,-0.895 -8.026,0 -9.958,5.68 -9.958,12.419 0,2.404 -0.253,12.875 9.577,12.875 3.35,0 6.832,-0.921 6.832,-0.921 z m 8.818,50.27 h -7.672 c -0.632,0 -1.146,-0.515 -1.146,-1.147 V 33.042 c -1.489,0.317 -4.126,0.906 -8.42,0.906 -15.265,0 -18.456,-13.737 -18.456,-21.242 0,-16.594 9.976,-21.454 19.304,-21.454 7.954,0 13.37,1.896 15.968,3.04 1.568,0.676 1.568,1.587 1.568,2.394 v 53.238 c 0,0.632 -0.514,1.147 -1.146,1.147 M 106.574,32.718 h -7.825 c 0,0 -0.917,0 -1.224,-0.768 L 86.786,3.573 76.037,32 c -0.166,0.446 -0.647,0.718 -1.123,0.718 h -7.831 c -1.072,0 -1.419,-0.88 -1.163,-1.564 l 15.713,-39.415 -6.35,-16.037 c -0.312,-0.796 0.029,-1.572 1.065,-1.572 h 7.733 c 0.472,0 0.89,0.283 1.065,0.72 l 22.481,56.198 c 0.406,0.974 -0.27,1.67 -1.053,1.67 m -274.347,0 h -8.189 c -0.506,0 -0.951,-0.342 -1.082,-0.83 l -7.794,-27.542 -7.143,24.503 c -0.628,2.274 -2.722,3.869 -5.09,3.869 h -2.526 c -2.369,0 -4.463,-1.595 -5.09,-3.869 l -7.143,-24.503 -7.795,27.542 c -0.131,0.488 -0.576,0.83 -1.082,0.83 h -8.189 c -0.764,0 -1.328,-0.747 -1.092,-1.495 l 11.176,-35.008 c 0.712,-2.232 2.764,-3.731 5.106,-3.731 h 3.298 c 2.358,0 4.471,1.579 5.14,3.84 l 6.934,23.439 6.933,-23.439 c 0.669,-2.261 2.783,-3.84 5.14,-3.84 h 3.298 c 2.342,0 4.394,1.499 5.107,3.731 l 11.175,35.008 c 0.237,0.748 -0.328,1.495 -1.092,1.495 m 78.834,0.189 c -1.812,0.37 -4.806,1.039 -9.34,1.039 -7.916,0 -15.868,-2.45 -15.868,-14.961 V -6.369 c 0,-0.633 0.513,-1.147 1.146,-1.147 h 7.678 c 0.634,0 1.148,0.514 1.148,1.148 v 25.133 c 0,1.833 0.32,6.391 7.173,6.391 2.846,0 5.608,-0.461 6.182,-0.553 0.606,-0.097 1.143,0.144 1.301,0.738 l 1.664,6.205 c 0.196,0.708 -0.244,1.189 -1.084,1.361 m 16.618,18.165 h -7.67 c -0.633,0 -1.147,-0.514 -1.147,-1.148 V -6.369 c 0,-0.633 0.513,-1.147 1.146,-1.147 h 7.671 c 0.634,0 1.147,0.514 1.147,1.148 v 56.292 c 0,0.634 -0.513,1.148 -1.147,1.148 M -142.72,-0.082 c -6.11,0 -10.718,5.389 -10.718,12.536 0,7.314 4.608,12.829 10.718,12.829 6.153,0 10.792,-5.515 10.792,-12.829 0,-7.147 -4.639,-12.536 -10.792,-12.536 m 0,34.031 c -11.516,0 -20.538,-9.442 -20.538,-21.495 0,-11.889 9.022,-21.202 20.538,-21.202 11.517,0 20.539,9.313 20.539,21.202 0,12.053 -9.022,21.495 -20.539,21.495"
             style="fill:#ff1f3e;fill-opacity:1;fill-rule:nonzero;stroke:none"
             id="path20" /></g><g
           id="g22"
           transform="translate(19.459,32.1129)"><path
             d="m 0,0 v 0.909 c 0,5.238 2.64,8.7 7.834,8.7 1.732,0 3.16,-0.26 4.415,-0.562 L 11.297,4.372 C 10.605,4.502 9.696,4.632 8.96,4.632 6.753,4.632 5.973,3.203 5.973,1.039 V 0 h 5.065 V -4.761 H 5.973 V -22.118 H 0 V -4.761 H -2.943 V 0 Z"
             style="fill:#000000;fill-opacity:1;fill-rule:nonzero;stroke:none"
             id="path24" /></g><g
           id="g26"
           transform="translate(43.3942,32.6323)"><path
             d="M 0,0 C 1.559,0 3.03,-0.172 3.896,-0.39 L 3.03,-5.281 c -0.736,0.26 -1.645,0.347 -2.554,0.347 -1.601,0 -2.683,-0.303 -3.593,-0.736 V -22.637 H -9.09 V -1.904 C -6.752,-0.735 -3.117,0 0,0"
             style="fill:#000000;fill-opacity:1;fill-rule:nonzero;stroke:none"
             id="path28" /></g><g
           id="g30"
           transform="translate(59.7122,14.4104)"><path
             d="m 0,0 c 3.073,0 4.675,2.553 4.675,6.665 0,4.069 -1.602,6.623 -4.675,6.623 -3.03,0 -4.718,-2.554 -4.718,-6.623 C -4.718,2.553 -3.03,0 0,0 m 0,-4.935 c -6.666,0 -10.821,4.632 -10.821,11.6 0,6.926 4.155,11.557 10.821,11.557 6.709,0 10.778,-4.631 10.778,-11.557 0,-6.968 -4.069,-11.6 -10.778,-11.6"
             style="fill:#000000;fill-opacity:1;fill-rule:nonzero;stroke:none"
             id="path32" /></g><g
           id="g34"
           transform="translate(101.524,9.9948)"><path
             d="m 0,0 v 13.332 c 0,2.9 -1.169,4.372 -3.896,4.372 -1.472,0 -2.943,-0.434 -4.025,-1.039 0.346,-1.169 0.519,-2.554 0.519,-4.069 V 0 h -5.8 v 13.332 c 0,2.9 -1.125,4.372 -3.896,4.372 -1.212,0 -2.38,-0.26 -3.506,-0.779 V 0 h -5.93 v 20.733 c 2.771,1.213 6.363,1.904 9.739,1.904 2.511,0 4.588,-0.605 6.104,-1.774 1.817,0.909 4.414,1.774 7.055,1.774 6.147,0 9.566,-3.202 9.566,-8.872 L 5.93,0 Z"
             style="fill:#000000;fill-opacity:1;fill-rule:nonzero;stroke:none"
             id="path36" /></g><g
           id="g38"
           transform="translate(123.4676,9.9948)"><path
             d="M 0,0 V 30.299 H 18.44 V 25.018 H 6.19 V 16.795 H 16.491 V 11.514 H 6.19 L 6.19,0 Z"
             style="fill:#000000;fill-opacity:1;fill-rule:nonzero;stroke:none"
             id="path40" /></g><g
           id="g42"
           transform="translate(148.3985,40.2937)"><path
             d="m 0,0 h 6.19 v -27.424 -2.875 H 0 Z"
             style="fill:#000000;fill-opacity:1;fill-rule:nonzero;stroke:none"
             id="path44" /></g><g
           id="g46"
           transform="translate(162.1623,16.4877)"><path
             d="m 0,0 c 2.035,-0.779 4.935,-1.645 7.965,-1.645 3.333,0 5.021,1.212 5.021,3.463 0,2.726 -1.991,3.505 -5.886,4.761 -4.935,1.688 -8.139,3.983 -8.139,9.046 0,5.498 3.767,8.7 10.432,8.7 3.247,0 6.277,-0.735 8.137,-1.558 l -1.211,-5.151 c -1.991,0.779 -4.112,1.342 -6.537,1.342 -3.029,0 -4.544,-1.038 -4.544,-3.159 0,-2.337 1.515,-3.074 4.891,-4.285 5.15,-1.775 9.09,-3.723 9.09,-9.653 0,-5.8 -4.502,-8.873 -10.995,-8.873 -3.722,0 -7.185,0.779 -9.349,1.774 z"
             style="fill:#000000;fill-opacity:1;fill-rule:nonzero;stroke:none"
             id="path48" /></g></g></g></g></svg>
